<mxfile host="app.diagrams.net" modified="2022-12-29T21:27:57.934Z" agent="5.0 (Macintosh; Intel Mac OS X 10_15_7) AppleWebKit/537.36 (KHTML, like Gecko) Chrome/108.0.0.0 Safari/537.36" etag="YpSgTT99NFnCrASnAm06" version="20.4.0" type="github">
  <diagram id="vAmriN-QizS3N-JFXgIi" name="Page-1">
    <mxGraphModel dx="946" dy="646" grid="1" gridSize="10" guides="1" tooltips="1" connect="1" arrows="1" fold="1" page="1" pageScale="1" pageWidth="1169" pageHeight="827" math="0" shadow="0">
      <root>
        <mxCell id="0" />
        <mxCell id="1" parent="0" />
        <mxCell id="SiaP-afEi_6uD-jfdAbx-1" value="Game Data Including Features" style="shape=cylinder3;whiteSpace=wrap;html=1;boundedLbl=1;backgroundOutline=1;size=15;" vertex="1" parent="1">
          <mxGeometry x="120" y="130" width="60" height="140" as="geometry" />
        </mxCell>
        <mxCell id="SiaP-afEi_6uD-jfdAbx-3" value="" style="shape=actor;whiteSpace=wrap;html=1;" vertex="1" parent="1">
          <mxGeometry x="830" y="150" width="70" height="100" as="geometry" />
        </mxCell>
        <mxCell id="SiaP-afEi_6uD-jfdAbx-4" value="Model" style="swimlane;childLayout=stackLayout;horizontal=1;startSize=30;horizontalStack=0;rounded=1;fontSize=14;fontStyle=0;strokeWidth=2;resizeParent=0;resizeLast=1;shadow=0;dashed=0;align=center;" vertex="1" parent="1">
          <mxGeometry x="540" y="150" width="160" height="120" as="geometry" />
        </mxCell>
        <mxCell id="SiaP-afEi_6uD-jfdAbx-5" value="+number_of_last_games&#xa;+features&#xa;+is_trained: bool&#xa;&#xa;train_model()&#xa;predict(game)" style="align=left;strokeColor=none;fillColor=none;spacingLeft=4;fontSize=12;verticalAlign=top;resizable=0;rotatable=0;part=1;" vertex="1" parent="SiaP-afEi_6uD-jfdAbx-4">
          <mxGeometry y="30" width="160" height="90" as="geometry" />
        </mxCell>
        <mxCell id="SiaP-afEi_6uD-jfdAbx-6" value="- which data to train on?&lt;br&gt;train_model(features, number_of_games):&lt;br&gt;&lt;br&gt;&lt;span style=&quot;white-space: pre;&quot;&gt;	&lt;/span&gt;- get_features_targets(features) target: W/D/L&lt;br&gt;&lt;span style=&quot;white-space: pre;&quot;&gt;	&lt;/span&gt;- sk.learn.train&lt;br&gt;&lt;span style=&quot;white-space: pre;&quot;&gt;	&lt;/span&gt;- self.is_trained = True&lt;br&gt;&lt;br&gt;predict(game):&lt;br&gt;&lt;span style=&quot;white-space: pre;&quot;&gt;	&lt;/span&gt;get_features(games)&lt;br&gt;&lt;span style=&quot;white-space: pre;&quot;&gt;	&lt;/span&gt;sk.learn.predict()" style="shape=note;size=20;whiteSpace=wrap;html=1;align=left;" vertex="1" parent="1">
          <mxGeometry x="320" y="320" width="450" height="210" as="geometry" />
        </mxCell>
      </root>
    </mxGraphModel>
  </diagram>
</mxfile>
